<svg width="1920" height="1938" viewBox="0 0 1920 1938" fill="none" xmlns="http://www.w3.org/2000/svg">
<g clip-path="url(#clip0_0_4)">
<path d="M2751.84 1020.94C2493.99 1003.53 2308.31 895.568 2200.79 776.231M2200.79 776.231C2057.65 617.352 2053.02 438.302 2201.01 425.883C2304.3 417.215 2293.63 589.14 2200.79 776.231ZM2200.79 776.231C2101.34 976.664 1907.57 1194.51 1658.57 1226.35C1359.19 1264.65 1366.34 932.177 1453.5 610.672M1453.5 610.672C1495.71 454.999 1520.5 347 1658.57 279.501C1803 208.889 1848.5 506.501 1453.5 610.672Z" stroke="#7468F6" stroke-width="38.7832"/>
<path d="M1456.47 606C1225.66 722.28 1096.55 893.92 1043.87 1045.67M1043.87 1045.67C973.742 1247.69 1039.08 1414.46 1180.26 1368.38C1278.79 1336.22 1202.13 1181.96 1043.87 1045.67ZM1043.87 1045.67C874.328 899.655 611.123 774.264 369.322 841.708C78.6052 922.797 214.427 1226.34 419.705 1488.68M419.705 1488.68C566.93 1676.84 749.882 1843.79 836.829 1892.29C1009.56 1988.63 986.504 1626.06 419.705 1488.68ZM419.705 1488.68C303.376 1460.49 164.144 1441.78 -1 1438.47" stroke="#7468F6" stroke-width="38.7832"/>
</g>
<defs>
<clipPath id="clip0_0_4">
<rect width="1922" height="1939" fill="white" transform="translate(-1)"/>
</clipPath>
</defs>
</svg>
