<svg width="151" height="20" viewBox="0 0 151 20" fill="none" xmlns="http://www.w3.org/2000/svg">
<path d="M16.3351 0.160668C16.6278 0.0321332 16.9537 -0.0192804 17.313 0.00642694C17.6722 0.0321335 18.0115 0.128534 18.3309 0.29563C18.6635 0.449871 18.9562 0.66838 19.209 0.951156C19.4618 1.23393 19.6281 1.57455 19.708 1.97301C19.7878 2.37146 19.7678 2.82134 19.6481 3.32262C19.4751 3.93959 19.1358 4.40231 18.6302 4.7108C18.1379 5.01928 17.5325 5.16709 16.814 5.15424C16.1089 5.14139 15.4103 5.06427 14.7185 4.92288C14.0399 4.78149 13.3214 4.57583 12.563 4.30591L11.2657 15.6041C11.2524 15.6684 11.2125 15.7005 11.146 15.7005H6.81508L6.7552 15.6812C6.7419 15.6684 6.7419 15.6427 6.7552 15.6041L8.45163 3.11054C7.78637 2.90488 7.16102 2.87918 6.57558 3.03342C5.99014 3.17481 5.6176 3.51542 5.45793 4.05527C5.3781 4.31234 5.3914 4.56298 5.49785 4.8072C5.60429 5.05141 5.71738 5.25707 5.83713 5.42416C5.97019 5.59126 6.01676 5.71337 5.97684 5.79049C5.75065 6.25321 5.35149 6.61954 4.77936 6.88946C4.22053 7.15938 3.6484 7.26864 3.06297 7.21722C2.30456 7.15296 1.67256 6.9473 1.16696 6.60026C0.661354 6.24036 0.32872 5.80977 0.169056 5.30848C0.00939201 4.8072 -0.0371767 4.28663 0.02935 3.74679C0.0958768 3.20694 0.308762 2.69923 0.668007 2.22365C1.04056 1.73522 1.50624 1.35604 2.06507 1.08612C3.03636 0.623393 4.08748 0.398457 5.21843 0.411311C6.36269 0.411311 7.38721 0.539845 8.29197 0.796914C9.19673 1.05398 10.2545 1.2982 11.4653 1.52956C12.6894 1.74807 13.7937 1.81234 14.7783 1.72236C15.1775 1.6838 15.4902 1.5874 15.7164 1.43316C15.9425 1.26607 16.0756 1.09897 16.1155 0.931876C16.1554 0.751928 16.1887 0.584833 16.2153 0.430591C16.2419 0.276349 16.2818 0.186375 16.3351 0.160668Z" fill="white"/>
<path d="M21.9486 5.61697C22.6005 5.61697 23.1061 5.80977 23.4654 6.19537C23.8379 6.56812 23.9776 7.09512 23.8845 7.77635C23.7913 8.54756 23.472 9.1581 22.9265 9.60797C22.3943 10.045 21.7756 10.2635 21.0704 10.2635C20.8575 10.2635 20.6513 10.2185 20.4517 10.1285C20.2654 10.0386 20.1523 9.95501 20.1124 9.87789C20.0991 9.81362 20.0991 9.76864 20.1124 9.74293C20.1257 9.70437 20.1457 9.62725 20.1723 9.51157C20.2122 9.39589 20.2388 9.28663 20.2521 9.1838C20.332 8.61825 20.1989 8.33547 19.853 8.33547C19.5869 8.33547 19.3806 8.52828 19.2343 8.91388C19.1012 9.28663 18.9881 9.82005 18.895 10.5141L18.2563 15.6234C18.243 15.6748 18.2098 15.7069 18.1565 15.7198H14.145L14.0851 15.662V15.6234C14.5641 12.7057 14.8568 10.8033 14.9632 9.91645C15.0431 9.1838 15.0431 8.62468 14.9632 8.23907C14.8834 7.85347 14.7637 7.60925 14.604 7.50643C14.4576 7.39075 14.3312 7.30077 14.2248 7.2365C14.1317 7.17224 14.1117 7.08869 14.1649 6.98586C14.3246 6.65167 14.6639 6.34319 15.1828 6.06041C15.7017 5.76478 16.2273 5.61697 16.7595 5.61697C17.438 5.61697 17.9902 5.80334 18.416 6.17609C18.8551 6.54884 19.1012 7.06298 19.1544 7.71851C19.5004 7.08869 19.9261 6.58098 20.4317 6.19537C20.9507 5.80977 21.4563 5.61697 21.9486 5.61697Z" fill="white"/>
<path d="M34.0083 12.6735C34.0882 12.7506 34.0948 12.8535 34.0283 12.982C33.7888 13.5733 33.1834 14.2352 32.2121 14.9679C31.2408 15.7005 30.1165 16.0668 28.8392 16.0668C27.3357 16.0668 26.1183 15.5527 25.1869 14.5244C24.2688 13.4961 23.9029 12.2558 24.0892 10.8033C24.2755 9.3509 24.9607 8.11697 26.1449 7.10154C27.3291 6.07326 28.7594 5.55913 30.4359 5.55913C31.9261 5.55913 33.0304 5.91902 33.7489 6.63882C34.4807 7.34576 34.8 8.10411 34.7069 8.91388C34.6137 9.63368 34.3277 10.2378 33.8487 10.7262C33.383 11.2018 32.8308 11.5231 32.1922 11.6902C31.5535 11.8573 30.8616 11.9666 30.1165 12.018C29.3847 12.0694 28.6995 12.0244 28.0609 11.883C28.2737 12.8213 28.9457 13.3612 30.0766 13.5026C31.2209 13.644 32.445 13.374 33.7489 12.6928C33.842 12.6285 33.9285 12.6221 34.0083 12.6735ZM29.438 7.93059C28.7993 8.26478 28.3602 9.01671 28.1207 10.1864C28.9723 10.2635 29.6375 10.1671 30.1165 9.89717C30.6088 9.6144 30.8882 9.20308 30.9548 8.66324C30.9947 8.39332 30.9215 8.16838 30.7352 7.98843C30.5623 7.80848 30.3228 7.72494 30.0167 7.73779C30.0167 7.75064 30.0101 7.75707 29.9968 7.75707H29.9369C29.7506 7.78278 29.5843 7.84062 29.438 7.93059Z" fill="white"/>
<path d="M45.969 11.7674C45.8891 12.3843 45.8758 12.8663 45.929 13.2134C45.9956 13.5476 46.0887 13.8046 46.2085 13.9846C46.3282 14.1517 46.4546 14.2674 46.5877 14.3316C46.7207 14.383 46.8205 14.4409 46.887 14.5051C46.9536 14.5566 46.9669 14.6272 46.9269 14.7172C46.7673 15.0386 46.428 15.347 45.9091 15.6427C45.3902 15.9255 44.8646 16.0668 44.3324 16.0668C43.5075 16.0668 42.8422 15.8033 42.3366 15.2763C41.8443 14.7365 41.658 14.0231 41.7778 13.1362L42.2568 9.39589C42.3366 8.71465 42.1769 8.3419 41.7778 8.27763C41.3919 8.21337 41.0127 8.4383 40.6402 8.95244C40.3475 9.36375 40.1612 9.85218 40.0813 10.4177L39.4227 15.5848C39.4227 15.6491 39.3895 15.6877 39.3229 15.7005H35.3313C35.2781 15.6877 35.2515 15.6555 35.2515 15.6041C35.7305 12.6735 36.0299 10.7648 36.1496 9.87789C36.2295 9.26093 36.2428 8.78535 36.1895 8.45116C36.1363 8.10411 36.0565 7.84704 35.95 7.67995C35.8436 7.5 35.7305 7.38432 35.6108 7.3329C35.5043 7.26864 35.4178 7.2108 35.3513 7.15938C35.2981 7.10797 35.2914 7.03727 35.3313 6.9473C35.4777 6.61311 35.8103 6.30463 36.3292 6.02185C36.8481 5.72622 37.3737 5.57841 37.9059 5.57841C38.6111 5.57841 39.1832 5.78406 39.6223 6.19537C40.0747 6.59383 40.3208 7.1401 40.3608 7.83419C40.8531 7.06298 41.4318 6.49743 42.0971 6.13753C42.7757 5.76478 43.4143 5.57841 44.0131 5.57841C44.7848 5.57841 45.3968 5.87404 45.8492 6.4653C46.3149 7.05655 46.4879 7.82134 46.3681 8.75964C46.3415 8.991 46.2816 9.42159 46.1885 10.0514C46.1087 10.6684 46.0355 11.2404 45.969 11.7674Z" fill="white"/>
<path d="M59.0581 11.7674C58.9783 12.5 58.965 13.0591 59.0182 13.4447C59.0848 13.8303 59.1846 14.081 59.3176 14.1967C59.464 14.2995 59.5771 14.383 59.6569 14.4473C59.7367 14.5116 59.75 14.5951 59.6968 14.6979C59.5504 15.0321 59.2178 15.347 58.6989 15.6427C58.18 15.9255 57.6544 16.0668 57.1222 16.0668C56.4303 16.0668 55.8649 15.874 55.4258 15.4884C54.9867 15.09 54.7406 14.5501 54.6873 13.8689C53.716 15.3342 52.5718 16.0668 51.2546 16.0668C50.4562 16.0668 49.7843 15.8033 49.2388 15.2763C48.6933 14.7494 48.3207 14.0938 48.1212 13.3098C47.9349 12.5257 47.9016 11.6902 48.0214 10.8033C48.2076 9.38946 48.7199 8.16838 49.5581 7.1401C50.3964 6.09897 51.4408 5.57841 52.6915 5.57841C53.9689 5.57841 54.8869 6.18895 55.4457 7.41003L56.1443 1.89589C56.1576 1.84447 56.1908 1.81234 56.2441 1.79949H60.2357C60.2889 1.79949 60.3155 1.82519 60.3155 1.87661C59.5837 7.58355 59.1646 10.8805 59.0581 11.7674ZM52.2724 12.6735C52.472 13.162 52.8113 13.4062 53.2903 13.4062C53.7693 13.4062 54.1684 13.162 54.4878 12.6735C54.8204 12.1851 55.0333 11.5617 55.1264 10.8033C55.2196 10.045 55.1663 9.42159 54.9668 8.93316C54.7672 8.43188 54.4345 8.18123 53.9689 8.18123C53.4899 8.18123 53.084 8.43188 52.7514 8.93316C52.4188 9.43445 52.2059 10.0578 52.1128 10.8033C52.0196 11.5617 52.0728 12.1851 52.2724 12.6735Z" fill="white"/>
<path d="M71.2032 14.2738C71.0436 15.9833 70.4182 17.365 69.3272 18.419C68.2361 19.473 66.7859 20 64.9763 20C64.2978 20 63.6791 19.8972 63.1202 19.6915C62.5747 19.4987 62.1489 19.2545 61.8429 18.9589C61.5369 18.6632 61.2974 18.3805 61.1244 18.1105C60.9648 17.8406 60.865 17.5964 60.8251 17.3779C60.7585 17.0694 60.7319 16.8316 60.7452 16.6645C60.7718 16.5103 60.8051 16.4075 60.845 16.356C60.8982 16.3046 60.9648 16.2853 61.0446 16.2982C61.1377 16.3111 61.2641 16.401 61.4238 16.5681C61.5835 16.7352 61.7498 16.9087 61.9227 17.0887C62.109 17.2815 62.4017 17.455 62.8009 17.6093C63.2001 17.7635 63.6524 17.8406 64.158 17.8406C64.9165 17.8406 65.5485 17.6285 66.0541 17.2044C66.573 16.7802 66.8923 16.2596 67.012 15.6427L67.2515 13.7147C66.7725 14.4859 66.2137 15.0514 65.5751 15.4113C64.9497 15.7712 64.3377 15.9512 63.7389 15.9512C62.9805 15.9512 62.3685 15.6555 61.9028 15.0643C61.4504 14.473 61.2841 13.7082 61.4038 12.7699L61.7631 9.87789C61.8429 9.26093 61.8496 8.78535 61.783 8.45116C61.7298 8.10411 61.6433 7.84704 61.5236 7.67995C61.4038 7.5 61.2774 7.38432 61.1444 7.3329C61.0246 7.26864 60.9248 7.2108 60.845 7.15938C60.7785 7.10797 60.7652 7.03727 60.8051 6.9473C60.9648 6.61311 61.3041 6.30463 61.823 6.02185C62.3419 5.72622 62.8674 5.57841 63.3996 5.57841C64.2379 5.57841 64.9031 5.84833 65.3954 6.38818C65.8877 6.91517 66.074 7.62211 65.9543 8.509L65.4952 12.1337C65.4154 12.8278 65.5618 13.2005 65.9343 13.2519C66.3069 13.3162 66.6661 13.0848 67.012 12.5578C67.2782 12.1465 67.4511 11.671 67.5309 11.1311L68.1896 6.06041C68.1896 6.009 68.2162 5.97686 68.2694 5.96401H72.1213C72.1745 5.96401 72.2011 5.99614 72.2011 6.06041C71.762 9.82648 71.4294 12.5643 71.2032 14.2738Z" fill="white"/>
<path d="M86.9401 12.5578C87.02 12.635 87.0266 12.7378 86.9601 12.8663C86.8536 13.1105 86.674 13.3933 86.4212 13.7147C86.1684 14.0231 85.8358 14.3573 85.4233 14.7172C85.0241 15.0643 84.5119 15.3599 83.8865 15.6041C83.2745 15.8355 82.6292 15.9512 81.9506 15.9512C80.4338 15.9512 79.2097 15.437 78.2783 14.4087C77.347 13.3805 76.9744 12.1401 77.1607 10.6877C77.347 9.27378 78.0056 8.06555 79.1365 7.06298C80.2675 6.04756 81.598 5.50771 83.1281 5.44344C84.3389 5.44344 85.3568 5.68123 86.1817 6.15681C87.0066 6.61954 87.3659 7.28149 87.2595 8.14267C87.2062 8.63111 86.9667 9.07455 86.541 9.47301C86.1152 9.87146 85.6229 10.0707 85.0641 10.0707C84.758 10.0707 84.4653 10.0321 84.1859 9.95501C83.9065 9.87789 83.7468 9.8072 83.7069 9.74293C83.6936 9.65296 83.687 9.58869 83.687 9.55013C83.687 9.51157 83.7003 9.42802 83.7269 9.29949C83.7535 9.1581 83.7734 9.04242 83.7868 8.95244C83.84 8.55398 83.7934 8.23265 83.647 7.98843C83.5007 7.74422 83.2878 7.62211 83.0084 7.62211C82.5028 7.62211 82.0704 7.94344 81.7111 8.58612C81.3652 9.21594 81.1789 9.91645 81.1523 10.6877C81.1257 11.5103 81.292 12.153 81.6512 12.6157C82.0105 13.0656 82.4762 13.3226 83.0483 13.3869C83.6337 13.4383 84.2391 13.3933 84.8645 13.2519C85.4898 13.1105 86.0886 12.8856 86.6607 12.5771C86.7805 12.5 86.8736 12.4936 86.9401 12.5578Z" fill="white"/>
<path d="M97.8422 7.42931C98.7736 8.509 99.1461 9.77506 98.9598 11.2275C98.7736 12.6799 98.0883 13.8753 96.9042 14.8136C95.7333 15.7391 94.3362 16.1504 92.713 16.0476C91.1163 15.9319 89.8457 15.3342 88.901 14.2545C87.9696 13.1748 87.5971 11.9087 87.7833 10.4563C87.9696 9.01671 88.6615 7.82776 89.859 6.88946C91.0698 5.95116 92.4668 5.53342 94.0502 5.63625C95.6468 5.75193 96.9108 6.34961 97.8422 7.42931ZM91.7151 10.7262C91.6086 11.6003 91.6552 12.3393 91.8548 12.9434C92.0677 13.5347 92.4469 13.8496 92.9924 13.8882C93.5512 13.9267 93.9969 13.6761 94.3296 13.1362C94.6755 12.5964 94.9084 11.8702 95.0281 10.9576C95.1479 10.0707 95.1013 9.33162 94.8884 8.74036C94.6888 8.1491 94.3163 7.83419 93.7708 7.79563C93.2119 7.75707 92.7596 8.01414 92.4136 8.56684C92.0677 9.11954 91.8348 9.83933 91.7151 10.7262Z" fill="white"/>
<path d="M109.946 7.42931C110.877 8.509 111.25 9.77506 111.063 11.2275C110.877 12.6799 110.192 13.8753 109.008 14.8136C107.837 15.7391 106.44 16.1504 104.816 16.0476C103.22 15.9319 101.949 15.3342 101.004 14.2545C100.073 13.1748 99.7005 11.9087 99.8868 10.4563C100.073 9.01671 100.765 7.82776 101.962 6.88946C103.173 5.95116 104.57 5.53342 106.154 5.63625C107.75 5.75193 109.014 6.34961 109.946 7.42931ZM103.819 10.7262C103.712 11.6003 103.759 12.3393 103.958 12.9434C104.171 13.5347 104.55 13.8496 105.096 13.8882C105.655 13.9267 106.1 13.6761 106.433 13.1362C106.779 12.5964 107.012 11.8702 107.132 10.9576C107.251 10.0707 107.205 9.33162 106.992 8.74036C106.792 8.1491 106.42 7.83419 105.874 7.79563C105.315 7.75707 104.863 8.01414 104.517 8.56684C104.171 9.11954 103.938 9.83933 103.819 10.7262Z" fill="white"/>
<path d="M122.911 14.428C123.071 14.5051 123.144 14.5823 123.131 14.6594C123.131 14.7365 123.038 14.8715 122.852 15.0643C122.572 15.3342 122.16 15.5784 121.614 15.7969C121.082 16.0154 120.556 16.1247 120.038 16.1247C119.386 16.1247 118.82 16.0026 118.341 15.7584C117.875 15.5141 117.536 15.2057 117.323 14.8329C117.11 14.4602 116.931 14.0553 116.784 13.6183C116.638 13.1812 116.571 12.7763 116.585 12.4036C116.611 12.018 116.625 11.6967 116.625 11.4396C116.665 11.1568 116.758 11.0154 116.904 11.0154C117.902 11.0154 118.567 10.6555 118.9 9.93573C119.139 9.39589 119.119 8.92673 118.84 8.52828C118.667 8.28406 118.434 8.16195 118.142 8.16195C117.596 8.16195 117.17 8.36761 116.864 8.77892C116.558 9.19023 116.365 9.66581 116.285 10.2057L115.607 15.5848L115.507 15.7005H111.655C111.602 15.6877 111.575 15.6555 111.575 15.6041C112.52 7.86632 113.085 3.30334 113.272 1.91517C113.285 1.87661 113.312 1.8509 113.352 1.83805H117.263L117.323 1.85733C117.337 1.87018 117.343 1.88946 117.343 1.91517L116.625 7.56427C117.09 6.90874 117.643 6.41388 118.281 6.07969C118.933 5.7455 119.585 5.57841 120.237 5.57841C121.315 5.57841 122.073 6.009 122.512 6.87018C122.911 7.65424 122.905 8.46401 122.492 9.29949C122.027 10.2763 121.195 10.8548 119.998 11.0347L119.978 11.0733C119.991 11.1375 120.011 11.2211 120.038 11.3239C120.077 11.4267 120.171 11.626 120.317 11.9216C120.477 12.2172 120.656 12.5 120.856 12.7699C121.055 13.027 121.335 13.3162 121.694 13.6375C122.067 13.946 122.472 14.2095 122.911 14.428Z" fill="white"/>
<path d="M129.684 3.26478C129.631 3.76607 129.352 4.19023 128.846 4.53727C128.34 4.88432 127.768 5.05784 127.13 5.05784C126.491 5.05784 125.965 4.88432 125.553 4.53727C125.154 4.19023 124.981 3.76607 125.034 3.26478C125.101 2.77635 125.38 2.35861 125.872 2.01157C126.365 1.65167 126.93 1.47172 127.569 1.47172C128.207 1.47172 128.733 1.65167 129.145 2.01157C129.558 2.35861 129.737 2.77635 129.684 3.26478ZM124.854 6.06041L124.954 5.94473H128.946C129.012 5.95758 129.046 5.98972 129.046 6.04113C128.567 8.97172 128.267 10.8805 128.148 11.7674C128.068 12.3843 128.054 12.8663 128.108 13.2134C128.161 13.5476 128.234 13.8046 128.327 13.9846C128.434 14.1517 128.547 14.2674 128.666 14.3316C128.786 14.383 128.873 14.4344 128.926 14.4859C128.979 14.5373 128.986 14.608 128.946 14.6979C128.799 15.0321 128.467 15.347 127.948 15.6427C127.429 15.9255 126.903 16.0668 126.371 16.0668C125.546 16.0668 124.908 15.8033 124.455 15.2763C124.016 14.7494 123.85 14.036 123.956 13.1362L124.854 6.06041Z" fill="white"/>
<path d="M140.016 12.6735C140.096 12.7506 140.102 12.8535 140.036 12.982C139.796 13.5733 139.191 14.2352 138.22 14.9679C137.248 15.7005 136.124 16.0668 134.847 16.0668C133.343 16.0668 132.126 15.5527 131.194 14.5244C130.276 13.4961 129.91 12.2558 130.097 10.8033C130.283 9.3509 130.968 8.11697 132.152 7.10154C133.337 6.07326 134.767 5.55913 136.443 5.55913C137.934 5.55913 139.038 5.91902 139.756 6.63882C140.488 7.34576 140.807 8.10411 140.714 8.91388C140.621 9.63368 140.335 10.2378 139.856 10.7262C139.39 11.2018 138.838 11.5231 138.2 11.6902C137.561 11.8573 136.869 11.9666 136.124 12.018C135.392 12.0694 134.707 12.0244 134.068 11.883C134.281 12.8213 134.953 13.3612 136.084 13.5026C137.228 13.644 138.452 13.374 139.756 12.6928C139.85 12.6285 139.936 12.6221 140.016 12.6735ZM135.445 7.93059C134.807 8.26478 134.368 9.01671 134.128 10.1864C134.98 10.2635 135.645 10.1671 136.124 9.89717C136.616 9.6144 136.896 9.20308 136.962 8.66324C137.002 8.39332 136.929 8.16838 136.743 7.98843C136.57 7.80848 136.33 7.72494 136.024 7.73779C136.024 7.75064 136.018 7.75707 136.004 7.75707H135.944C135.758 7.78278 135.592 7.84062 135.445 7.93059Z" fill="white"/>
<path d="M147.949 10.0129C150.051 10.6427 151.016 11.6452 150.843 13.0206C150.75 13.7532 150.391 14.3638 149.765 14.8522C149.14 15.3278 148.448 15.6491 147.69 15.8162C146.931 15.9961 146.133 16.0797 145.295 16.0668C144.616 16.054 143.951 15.9704 143.299 15.8162C142.647 15.6748 142.068 15.3985 141.563 14.9871C141.057 14.5758 140.844 14.081 140.924 13.5026C140.99 13.0141 141.223 12.6028 141.622 12.2686C142.035 11.9216 142.521 11.7545 143.079 11.7674C143.399 11.7802 143.711 11.8252 144.017 11.9023C144.337 11.9794 144.51 12.0566 144.536 12.1337C144.563 12.2365 144.576 12.3072 144.576 12.3458C144.576 12.3715 144.563 12.455 144.536 12.5964C144.51 12.7378 144.49 12.847 144.476 12.9242C144.423 13.2969 144.49 13.5861 144.676 13.7918C144.876 13.9974 145.155 14.1067 145.514 14.1195C146.206 14.1195 146.599 13.8368 146.692 13.2712C146.705 13.0913 146.672 12.937 146.592 12.8085C146.525 12.6671 146.386 12.5386 146.173 12.4229C145.96 12.3072 145.78 12.2172 145.634 12.153C145.488 12.0887 145.222 11.9987 144.836 11.883C144.45 11.7545 144.184 11.6645 144.037 11.6131C143.306 11.3432 142.713 10.964 142.261 10.4756C141.809 9.97429 141.622 9.37018 141.702 8.66324V8.6054C141.822 7.66709 142.387 6.92159 143.399 6.36889C144.41 5.80334 145.474 5.53342 146.592 5.55913C147.869 5.58483 148.947 5.82262 149.825 6.27249C150.703 6.70951 151.089 7.32648 150.983 8.12339C150.93 8.59897 150.71 8.99743 150.324 9.31876C149.938 9.6401 149.446 9.79434 148.847 9.78149C148.515 9.76864 148.202 9.72365 147.909 9.64653C147.63 9.55656 147.477 9.47301 147.45 9.39589C147.424 9.35733 147.45 9.09383 147.53 8.6054C147.583 8.21979 147.537 7.93702 147.39 7.75707C147.244 7.57712 146.998 7.49357 146.652 7.50643C146.359 7.50643 146.113 7.60283 145.913 7.79563C145.727 7.98843 145.621 8.18766 145.594 8.39332C145.541 8.79177 145.681 9.09383 146.013 9.29949C146.359 9.49229 146.918 9.70437 147.69 9.93573C147.716 9.94859 147.736 9.95501 147.75 9.95501C147.763 9.95501 147.783 9.96144 147.809 9.97429C147.836 9.97429 147.856 9.98072 147.869 9.99357C147.896 9.99357 147.923 10 147.949 10.0129Z" fill="white"/>
</svg>
